<?xml version="1.0" encoding="utf-8"?>
<!-- Generator: Adobe Illustrator 24.1.1, SVG Export Plug-In . SVG Version: 6.00 Build 0)  -->
<svg version="1.1" id="Layer_1" xmlns="http://www.w3.org/2000/svg" xmlns:xlink="http://www.w3.org/1999/xlink" x="0px" y="0px"
	 viewBox="0 0 1000 1000" style="enable-background:new 0 0 1000 1000;" xml:space="preserve">
<style type="text/css">
	.st0{clip-path:url(#SVGID_1_);}
	.st1{fill:#FFFFFF;}
	.st2{clip-path:url(#SVGID_2_);}
	.st3{fill-rule:evenodd;clip-rule:evenodd;fill:#FFFFFF;}
	.st4{clip-path:url(#SVGID_3_);}
	.st5{fill:#FF7BAC;}
</style>
<g>
	<defs>
		<rect id="SVGID_7_" x="411.3" y="336.6" width="168.7" height="134"/>
	</defs>
	<clipPath id="SVGID_1_">
		<use xlink:href="#SVGID_7_"  style="overflow:visible;"/>
	</clipPath>
	<g class="st0">
		<path class="st1" d="M411.3,336.6h168.5v134H411.3V336.6z"/>
	</g>
</g>
<g>
	<defs>
		<rect id="SVGID_9_" x="140.7" y="8.9" width="711.7" height="788.5"/>
	</defs>
	<clipPath id="SVGID_2_">
		<use xlink:href="#SVGID_9_"  style="overflow:visible;"/>
	</clipPath>
	<g class="st2">
		<path class="st3" d="M779.3,518.6C736.9,632.1,607.6,736.6,504.8,794c-7.1,4-14.6,3.4-22.7-1.7C331,694.8,225.6,603.2,182,425.9
			c-26.1-105.8-39.8-213.1-41.2-321.9c-0.1-2.7,1.2-4.4,3.9-5.1C256.5,68.1,368.3,38.8,479.9,11c13.9-3.4,41.3,0.5,82.4,11.8
			c94.6,26,189.5,51.1,284.5,75.3c2.5,0.7,3.8,2.3,3.8,4.8C851.4,250.9,827.6,389.5,779.3,518.6z M725.8,510.4
			c44.4-112.8,68.1-234.6,71.1-365.6c0.1-2.6-1.2-4.3-3.7-5c-80.1-22.6-160.6-43.6-240.6-66.4c-31-8.9-53.8-12-68.6-9.4
			c-42.3,7.5-137.7,33.1-286.3,76.7c-2.6,0.7-3.8,2.5-3.6,5.2c4.5,83,16,164.8,34.5,245.5c13.9,60.6,30.7,108,50.5,142.2
			c49.1,85.3,133.8,154.2,214.4,202.2c2.2,1.4,5.2,1.4,7.6,0C581,686.2,690.5,599.9,725.8,510.4z M753,285.1
			c-59.5-168-268.8-216.8-409.6-126.2c-42.5,27.5-73.7,77.2-102.6,119.7c-0.2,0.3-0.5,0.5-0.7,0.7c-1.5,1.1-3.5,0.9-4.6-0.5
			c-0.2-0.3-0.4-0.6-0.5-0.9c-18.9-50.7,87.7-143.6,132.5-157.5c38.3-11.7,77.1-20.6,116.5-26.5c14.5-2.2,29.4-1.3,44.7,2.5
			c45.6,11.6,99.4,20.4,137.2,42.9c36.3,21.6,65.2,50.3,86.7,85.9c11,18.4,11.8,38.3,2.6,59.8C754.5,287.2,753.7,287.2,753,285.1z
			 M713.6,331.2c-27.1-187.9-279.9-228.8-391.8-87.3c-22.5,28.5-37.3,70.2-66.5,91.1c-1.8,1.2-3.8,1.9-6,1.9
			c-5.8,0-10.5-4.7-10.5-10.6c0-2,0.6-4,1.7-5.7c34.9-52,70.4-117,125.4-149.9C509.2,85,720.2,158.6,738.9,334.9
			c5.1,48.3-14.4,104.6-32.5,151.5c-0.2,0.7-0.8,1.1-1.5,1.1c-0.8,0-1.5-0.7-1.5-1.5c0-0.1,0-0.2,0-0.4
			C711.4,435.8,720.2,377.5,713.6,331.2z M277.6,149.2l-46.9,62.2c-2.1,2.9-3.7,2.6-4.7-0.8c-10.9-40,12.1-62.3,50.2-63.8
			C278.5,146.6,278.9,147.5,277.6,149.2z M740,153l27.2,8.5c1.1,0.4,1.8,1.4,1.8,2.5v0l-0.9,31.4c0,1.5-1.2,2.6-2.6,2.6
			c-0.9,0-1.7-0.5-2.2-1.2L737,156.9c-0.3-0.4-0.4-0.9-0.4-1.4c0-1.5,1.2-2.7,2.6-2.7C739.5,152.8,739.7,152.9,740,153z
			 M356.1,240.5c99.3-94.5,284.7-69.2,328.4,71c19.9,63.9-5.8,128.3-4,194.2c0.6,20.9,2.3,39.3-14.4,50.6c-2.3,1.5-3.7,1-4.5-1.7
			c-21.8-80.9,27.2-159-0.6-238c-42.3-120.4-201-142.7-287.4-59.5c-40.7,39.1-56.1,111-108.6,132.7c-1.4,0.6-2.8,0.9-4.3,0.9
			c-6,0-10.8-4.8-10.8-10.8c0-3.5,1.7-6.8,4.5-8.8C304,334.7,313.5,281.1,356.1,240.5z M431.8,327.3c-12.1-9.7-3.8-34.7,0.1-45.9
			c24.8-70.5,142.9-46.9,134.3,39.9c-0.3,2.7-1.7,4.2-4.3,4.7c-1.7,0.3-3.2,0.8-4.5,1.6c-2.1,1.2-1.9,1.9,0.5,2.1l20.9,2.1
			c3.6,0.3,6.4,3.4,6.5,7.1l0.2,129c0,0,0,0.1,0,0.1c0,4.3-3.5,7.7-7.7,7.7l-159.4,0.2c-6.7,0-12.1-5.4-12.1-12.1
			c0.2-38.5,0-76.8-0.7-114.8c-0.2-14.3,8.2-20.7,25.1-19.1c0.1,0,0.1,0,0.2,0c0.8,0,1.4-0.6,1.4-1.4
			C432.4,328,432.2,327.6,431.8,327.3z M445.5,330.8l100.8-0.2c1.1,0,1.9-0.9,1.9-1.9v-4.5c-0.6-34.9-22-62.1-47.9-61.7
			c0,0,0,0-0.1,0l-10.1,0c-26.8,0.5-47.2,28.5-46.6,62.6v3.8C443.6,329.9,444.5,330.8,445.5,330.8z M508.6,397.9
			c5.2-6.8,6.6-14.3,4.4-22.4c-0.9-3.2-2.8-5.5-5.7-7c-5.1-2.7-10.6-3.5-16.4-2.5c-7.9,1.3-13.7,8.2-13.7,16.2
			c0,2.9,0.8,5.8,2.3,8.3l5.5,9.3c1.5,2.6,1.6,5.2,0.3,7.9l-12.7,26.9c-1.6,3.5-0.5,5.2,3.4,5.3l39.9,0.1c3.7,0.1,4.8-1.6,3.3-5
			l-11.8-27.1C506,404.6,506.4,400.8,508.6,397.9L508.6,397.9z M600.3,309c-10.4-17.4-19.5-35.6-27.3-54.6c-1.4-3.3-0.5-4,2.5-2.1
			c51.5,32.2,75.6,78,72.6,137.4c-2.7,50.8-29.9,122.6-4.8,187.9c1.1,3,0.6,5.7-1.5,8l-9.1,9.9c-2.9,3.2-5.3,2.9-7.3-1
			c-43.6-84.7,12.6-159.4-5.3-242.2C617.7,341.6,611.1,327.2,600.3,309z M273.6,413.6c67.7-25.2,78-114.6,138.1-156.1
			c3.2-2.2,4.3-1.4,3.4,2.3c-9.4,36.6-35.7,71-55.4,103.2c-22.6,36.8-44.8,60.7-82.8,74.4c-8.6,3.2-12.8,0.1-12.6-9
			C264.3,420.8,267.4,415.8,273.6,413.6z M473.2,306.2l46.3-0.2c0.8,0,1.5-0.7,1.5-1.5v-0.8c0-10-9.8-18.2-22-18.2h-5.2c0,0,0,0,0,0
			c-12.2,0-22.1,8.2-22.1,18.3v0.9C471.8,305.5,472.4,306.2,473.2,306.2z M286.1,462.4c39.1-19,70.8-46.5,95.2-82.4
			c1.7-2.6,2.7-2.3,3,0.8c2,20.7,0.6,36.8-15.6,52c-21.1,20-44.5,36.8-70.2,50.4c-4.8,2.6-8.8,3.4-12,2.5c-6-1.8-7.7-7.6-5.2-17.5
			C282,465.8,283.7,463.6,286.1,462.4L286.1,462.4z M299.9,509.1c27.9-19.1,53.8-31,79.9-54.5c2.8-2.5,4.3-1.9,4.5,1.8l1.3,21.8
			c0.2,3.9-1.3,6.9-4.6,9L315,529.1c-3.7,2.3-6.8,1.7-9.2-2l-7.2-11.2C296.8,513.2,297.3,511,299.9,509.1z M356.5,586.2
			c39.8-22.7,73.2-45.9,108.3-83c1.8-2,4.4-3.4,7.3-3.8l21.3-2.8c0.1,0,0.2,0,0.4,0c1.9,0,3.5,1.6,3.5,3.5c0,0.7-0.3,1.5-0.7,2.1
			c-31.4,40-69.6,72.1-114.5,96.2c-11.3,6.1-20.2,5.2-27.1-5.4c0,0,0,0,0-0.1c-1.4-2.2-0.7-5.2,1.4-6.5
			C356.4,586.2,356.4,586.2,356.5,586.2L356.5,586.2z M325.1,556c-0.6-0.9-0.9-2-0.9-3c0-1.9,1-3.7,2.6-4.7l51.5-33.1
			c0.1-0.1,0.2-0.1,0.2-0.1c25.2-15.7,48.5-24.1,51.9-18.6l0.8,1.3c0.3,0.6,0.4,0.6,0.4,0.6c3.4,5.5-14.2,22.8-39.4,38.5l-51.4,33
			c-0.9,0.6-1.9,0.9-3,0.9c-1.9,0-3.7-1-4.7-2.6L325.1,556z M412.9,607c36.3-23.7,74.8-58.6,115.2-104.6c5.9-6.6,13.6-7.7,23.2-3.2
			c2.8,1.3,3.3,3.3,1.6,5.8c-37.2,55.3-84.9,99.4-142.9,132.2c-1.9,1.2-4,1.8-6.2,1.8c-6.4,0-11.5-5.1-11.5-11.5
			c0-3.7,1.8-7.2,4.7-9.3C400.2,615.6,405.5,611.8,412.9,607z M557.1,579.4c-32.8,33.1-68.9,62.1-108.4,86.9c-3,1.9-6,1.9-8.9,0
			l-12.7-8c-3.3-2.1-3.3-4.2-0.1-6.4c46.8-30.7,90.2-65.8,130.2-105.1c2.6-2.5,6-3.9,9.6-3.9c5.3,0,10.1,3,12.4,7.8l30,63.3
			c1.3,2.8,0.8,5.3-1.4,7.4l-10.4,9.9c-0.9,0.8-2.1,1.3-3.3,1.3c-1.8,0-3.4-1-4.2-2.6l-24.4-49.2C563.3,576.5,560.5,576,557.1,579.4
			z M538.7,657.5L488.4,695c-2.5,1.9-5,1.9-7.7,0.2l-12.2-7.9c-3.4-2.2-3.4-4.5-0.2-6.9c17.3-13,55.3-49,74.8-52.6
			c12.4-2.2,22.1,3.6,29.1,17.6c0.9,2,0.7,3.9-0.5,5.7c-6.5,9.5-14.7,11.5-24.5,5.8C544.5,655.4,541.2,655.7,538.7,657.5
			L538.7,657.5z"/>
	</g>
</g>
<g>
	<defs>
		<rect id="SVGID_11_" x="460.5" y="349.6" width="70.2" height="106.7"/>
	</defs>
	<clipPath id="SVGID_3_">
		<use xlink:href="#SVGID_11_"  style="overflow:visible;"/>
	</clipPath>
	<g class="st4">
		<path class="st5" d="M474.5,384.2c0,3.1,0.5,6,1.6,8.5c1.1,2.6,2.6,4.9,4.5,6.8c1.9,1.9,4.1,3.4,6.7,4.5c2.5,1.1,5.3,1.6,8.2,1.6
			c3,0,5.7-0.5,8.2-1.6s4.8-2.6,6.7-4.5s3.4-4.2,4.5-6.8c1.1-2.6,1.7-5.4,1.7-8.5c0-3.1-0.6-5.9-1.7-8.5c-1.1-2.6-2.6-4.8-4.5-6.7
			c-1.9-1.9-4.1-3.4-6.7-4.5c-2.6-1.1-5.3-1.6-8.2-1.6c-2.9,0-5.7,0.5-8.2,1.6c-2.6,1.1-4.8,2.6-6.7,4.5c-1.9,1.9-3.4,4.1-4.5,6.7
			C475.1,378.3,474.5,381.1,474.5,384.2z M518.1,440.7h-15.7v15.7h-13.5v-15.7h-15.7V427h15.7v-8.8c-4-0.7-7.8-2.1-11.2-4.2
			c-3.5-2.1-6.5-4.6-9-7.6c-2.5-3-4.5-6.4-6-10.2c-1.4-3.8-2.2-7.8-2.2-12c0-4.7,0.9-9.2,2.8-13.4c1.9-4.2,4.4-7.9,7.6-11
			c3.2-3.1,6.9-5.6,11.2-7.4c4.3-1.8,8.8-2.7,13.5-2.7c4.7,0,9.2,0.9,13.5,2.7c4.3,1.8,8,4.3,11.2,7.4c3.2,3.1,5.7,6.8,7.6,11
			c1.9,4.2,2.8,8.6,2.8,13.4c0,4.2-0.7,8.2-2.2,12c-1.4,3.8-3.4,7.2-6,10.2c-2.5,3-5.5,5.5-8.9,7.6c-3.4,2.1-7.2,3.5-11.1,4.2v8.9
			h15.7V440.7"/>
	</g>
</g>
<g>
	<g transform="translate(76.845913, 292.064478)">
		<g>
			<path class="st1" d="M8.1,569.9c13.7,0,24.1,3.5,31.2,10.6c7.1,7.1,10.6,17.5,10.6,31.2v43.6c0,13.7-3.5,24.1-10.6,31.2
				c-7.1,7.1-17.5,10.6-31.2,10.6h-70.9V569.9H8.1z M17.2,611.7c0-10.9-5.5-16.4-16.4-16.4h-30.9v76.4H0.8
				c10.9,0,16.4-5.4,16.4-16.4V611.7z"/>
		</g>
	</g>
</g>
<g>
	<g transform="translate(106.241161, 292.064478)">
		<g>
			<path class="st1" d="M74.2,621.8c-4.8,0-7.2,2.4-7.2,7.2v10h30.9v-10c0-4.8-2.4-7.2-7.3-7.2H74.2z M126,695.4
				c-23.4,2.4-44.6,3.6-63.7,3.6c-8.2,0-14.8-2.5-19.8-7.4c-5-5-7.4-11.6-7.4-19.8v-43.6c0-9.1,2.6-16.2,7.7-21.4s12.3-7.7,21.4-7.7
				h36.3c9.1,0,16.2,2.6,21.4,7.7s7.7,12.3,7.7,21.4v33.6H66.9v7.3c0,1.8,0.6,3.3,1.8,4.5c1.2,1.2,2.7,1.8,4.5,1.8
				c12,0,29.6-0.9,52.8-2.7V695.4z"/>
		</g>
	</g>
</g>
<g>
	<g transform="translate(130.737199, 292.064478)">
		<g>
			<path class="st1" d="M199.7,594.5c-3.5-0.3-8.2-0.6-14-1.1c-5.8-0.5-10.8-0.7-15.1-0.7c-4.2,0-7,0.6-8.2,1.8
				c-1.2,1.2-1.8,2.7-1.8,4.5v9.1h30.1v24.5h-30.1v64.6h-31.8v-64.6h-12.7v-24.5h12.7v-12.7c0-8.2,2.5-14.9,7.4-19.8
				c5-5,11.6-7.4,19.8-7.4c7.4,0,15.2,0.3,23.5,0.8c8.2,0.5,15,0.8,20.2,1V594.5z"/>
		</g>
	</g>
</g>
<g>
	<g transform="translate(149.109228, 292.064478)">
		<g>
			<path class="st1" d="M222.3,621.8c-4.8,0-7.2,2.4-7.2,7.2v10h30.9v-10c0-4.8-2.4-7.2-7.3-7.2H222.3z M274.1,695.4
				c-23.4,2.4-44.6,3.6-63.7,3.6c-8.2,0-14.8-2.5-19.8-7.4c-5-5-7.4-11.6-7.4-19.8v-43.6c0-9.1,2.6-16.2,7.7-21.4
				c5.2-5.2,12.3-7.7,21.4-7.7h36.3c9.1,0,16.2,2.6,21.4,7.7s7.7,12.3,7.7,21.4v33.6H215v7.3c0,1.8,0.6,3.3,1.8,4.5
				c1.2,1.2,2.7,1.8,4.5,1.8c12,0,29.6-0.9,52.8-2.7V695.4z"/>
		</g>
	</g>
</g>
<g>
	<g transform="translate(173.605266, 292.064478)">
		<g>
			<path class="st1" d="M323.3,625.4c-6.4,0-13.7,1.2-21.8,3.6v68.2h-31.8v-96.4h28.2l1.8,9.1c5.7-3.8,11.6-6.5,17.5-8.3
				c6-1.8,11-2.6,15.2-2.6h8.2c8.2,0,14.8,2.5,19.8,7.4c5,5,7.5,11.6,7.5,19.8v70.9H336v-65.5c0-1.8-0.6-3.3-1.8-4.5
				c-1.2-1.2-2.7-1.8-4.5-1.8H323.3z"/>
		</g>
	</g>
</g>
<g>
	<g transform="translate(199.326103, 292.064478)">
		<g>
			<path class="st1" d="M426.7,697.2l-1.9-9.1c-5.7,3.8-11.5,6.5-17.5,8.3c-6,1.8-11.1,2.6-15.2,2.6h-8.2c-8.2,0-14.8-2.5-19.8-7.4
				c-5-5-7.4-11.6-7.4-19.8v-41.8c0-9.1,2.6-16.2,7.7-21.4s12.3-7.7,21.4-7.7h37.2v-30.9h31.9v127.3H426.7z M401.3,672.6
				c6.4,0,13.7-1.2,21.8-3.6v-43.6h-27.3c-4.8,0-7.2,2.4-7.2,7.2v33.7c0,1.8,0.6,3.3,1.8,4.5c1.2,1.2,2.7,1.8,4.5,1.8H401.3z"/>
		</g>
	</g>
</g>
<g>
	<g transform="translate(225.046941, 292.064478)">
		<g>
			<path class="st1" d="M560.2,697.2h-32.8v-51.9h-45.5v51.9h-32.7V569.9h32.7v50h45.5v-50h32.8V697.2z"/>
		</g>
	</g>
</g>
<g>
	<g transform="translate(254.850456, 292.064478)">
		<g>
			<path class="st1" d="M587.6,621.8c-4.8,0-7.2,2.4-7.2,7.2v10h30.9v-10c0-4.8-2.4-7.2-7.3-7.2H587.6z M639.5,695.4
				c-23.4,2.4-44.6,3.6-63.7,3.6c-8.2,0-14.8-2.5-19.8-7.4c-5-5-7.4-11.6-7.4-19.8v-43.6c0-9.1,2.6-16.2,7.7-21.4s12.3-7.7,21.4-7.7
				H614c9.1,0,16.2,2.6,21.4,7.7s7.7,12.3,7.7,21.4v33.6h-62.7v7.3c0,1.8,0.6,3.3,1.8,4.5c1.2,1.2,2.7,1.8,4.5,1.8
				c12,0,29.6-0.9,52.8-2.7V695.4z"/>
		</g>
	</g>
</g>
<g>
	<g transform="translate(279.346482, 292.064478)">
		<g>
			<path class="st1" d="M690.5,627.2c-7.7,0-15.6,1.8-23.7,5.4v64.6H635v-96.4h28.2l1.8,11.8c10.4-9.1,21.3-13.6,32.7-13.6h8.2v28.2
				H690.5z"/>
		</g>
	</g>
</g>
</svg>
